<?xml version="1.0" encoding="UTF-8"?>
<!DOCTYPE svg PUBLIC "-//W3C//DTD SVG 1.1//EN" "http://www.w3.org/Graphics/SVG/1.1/DTD/svg11.dtd">
<!-- Creator: CorelDRAW X7 -->
<svg xmlns="http://www.w3.org/2000/svg" xml:space="preserve" width="16.9332mm" height="16.9332mm" version="1.1" style="shape-rendering:geometricPrecision; text-rendering:geometricPrecision; image-rendering:optimizeQuality; fill-rule:evenodd; clip-rule:evenodd"
viewBox="0 0 1693 1693"
 xmlns:xlink="http://www.w3.org/1999/xlink">
 <defs>
  <style type="text/css">
   <![CDATA[
    .str0 {stroke:#FEFEFE;stroke-width:7.62}
    .fil1 {fill:#FEFEFE}
    .fil0 {fill:#E5097F}
    .fnt0 {font-weight:bold;font-size:631.27px;font-family:'Arial'}
   ]]>
  </style>
 </defs>
 <g id="Layer_x0020_1">
  <metadata id="CorelCorpID_0Corel-Layer"/>
  <ellipse class="fil0 str0" cx="719" cy="981" rx="711" ry="700"/>
  <g id="_82276720">
   <path class="fil1" d="M994 1189l76 0 0 182 -76 0 0 -182zm0 0z"/>
   <path class="fil1" d="M849 1189l77 0 0 182 -77 0 0 -182zm0 0z"/>
   <path class="fil1" d="M705 1189l76 0 0 182 -76 0 0 -182zm0 0z"/>
   <path class="fil1" d="M561 1189l76 0 0 182 -76 0 0 -182zm0 0z"/>
   <path class="fil1" d="M1096 1132l0 -19 -561 0 0 19c0,10 9,19 19,19l523 0c10,0 19,-9 19,-19l0 0zm0 0z"/>
   <path class="fil1" d="M1122 1410l-613 0c-10,0 -19,8 -19,19l0 50c0,11 9,20 19,20l613 0c10,0 19,-9 19,-20l0 -50c0,-11 -9,-19 -19,-19l0 0zm0 0z"/>
   <path class="fil1" d="M509 1074l613 0c8,0 16,-5 18,-13 2,-9 -1,-17 -8,-22l-307 -188c-6,-4 -13,-4 -20,0l-306 188c-7,5 -11,13 -8,22 2,8 9,13 18,13l0 0zm293 -114l26 0c11,0 19,8 19,19 0,10 -8,19 -19,19l-26 0c-10,0 -19,-9 -19,-19 0,-11 9,-19 19,-19l0 0zm0 0z"/>
  </g>
  <ellipse class="fil0" cx="1160" cy="491" rx="493" ry="485"/>
  <ellipse class="fil1" cx="1165" cy="493" rx="434" ry="427"/>
  <text x="789" y="701"  class="fil0 fnt0">10</text>
  <path class="fil1" d="M617 697l-130 0 0 -126c0,-17 -15,-16 -33,-16 -18,0 -32,-1 -32,16l0 126 -130 0c-18,0 -15,12 -15,30 0,17 -3,33 15,33l130 0 0 126c0,17 15,16 33,16 18,0 32,1 32,-16l0 -126 130 0c18,0 18,-12 18,-29 0,-18 0,-34 -18,-34z"/>
 </g>
</svg>
