<?xml version="1.0" encoding="UTF-8"?>
<!DOCTYPE svg PUBLIC "-//W3C//DTD SVG 1.1//EN" "http://www.w3.org/Graphics/SVG/1.1/DTD/svg11.dtd">
<!-- Creator: CorelDRAW X7 -->
<svg xmlns="http://www.w3.org/2000/svg" xml:space="preserve" width="42.3332mm" height="42.3332mm" version="1.1" style="shape-rendering:geometricPrecision; text-rendering:geometricPrecision; image-rendering:optimizeQuality; fill-rule:evenodd; clip-rule:evenodd"
viewBox="0 0 4233 4233"
 xmlns:xlink="http://www.w3.org/1999/xlink">
 <defs>
  <style type="text/css">
   <![CDATA[
    .fil0 {fill:#BFBFBF}
   ]]>
  </style>
 </defs>
 <g id="Layer_x0020_1">
  <metadata id="CorelCorpID_0Corel-Layer"/>
  <g id="_344016032">
   <path class="fil0" d="M2005 3209l-20 0 0 40 -20 0 0 20 -20 0 0 20 -20 0 0 20 -40 0 0 20 -20 0 0 20 20 0 0 40 60 0 0 20 40 0 0 100 20 0 0 60 -100 0 0 -60 -20 0 0 -20 -20 0 0 -40 -20 0 0 -40 -20 0 0 -120 20 0 0 -40 20 0 0 -20 20 0 0 -40 20 0 0 -60 20 0 0 -40 20 0 0 -60 20 0 0 -40 20 0 0 -40 20 0 0 -40 20 0 0 200 -20 0 0 100zm-999 -220l20 0 0 -20 40 0 0 40 -20 0 0 20 -20 0 0 -20 -20 0 0 -20zm1179 -320l20 0 0 -40 20 0 0 -20 40 0 0 40 20 0 0 20 20 0 0 20 20 0 0 20 320 0 0 -20 20 0 0 -20 20 0 0 -20 20 0 0 -40 20 0 0 20 20 0 0 20 20 0 0 20 20 0 0 100 -20 0 0 60 -20 0 0 40 -20 0 0 40 -20 0 0 20 -20 0 0 20 -40 0 0 20 -20 0 0 20 -40 0 0 20 -60 0 0 20 -100 0 0 -20 -60 0 0 -20 -20 0 0 -20 -20 0 0 -20 -20 0 0 -20 -40 0 0 -20 -20 0 0 -40 -20 0 0 -40 -20 0 0 -60 -20 0 0 -100zm-300 80l-20 0 0 40 -20 0 0 40 -20 0 0 40 -20 0 0 20 -20 0 0 40 -20 0 0 20 -20 0 0 20 -20 0 0 20 -20 0 0 20 -20 0 0 20 -20 0 0 40 -40 0 0 20 -20 0 0 20 -20 0 0 40 -20 0 0 40 -20 0 0 160 20 0 0 40 20 0 0 20 100 0 0 -20 -20 0 0 -40 -20 0 0 -120 20 0 0 -20 20 0 0 -20 40 0 0 60 -20 0 0 120 20 0 0 60 20 0 0 20 20 0 0 20 20 0 0 20 20 0 0 20 20 0 0 20 60 0 0 20 -80 0 0 -20 -100 0 0 -20 -60 0 0 -20 -60 0 0 -20 -40 0 0 -20 -39 0 0 -20 -40 0 0 -20 -40 0 0 -20 -40 0 0 -20 -40 0 0 -20 -20 0 0 -20 -20 0 0 -20 -40 0 0 -20 -20 0 0 -20 -20 0 0 -20 -20 0 0 -20 -20 0 0 -20 -20 0 0 -20 -20 0 0 -20 -20 0 0 -20 -20 0 0 -20 20 0 0 -40 40 0 0 -20 40 0 0 -20 20 0 0 -20 100 0 0 20 20 0 0 20 20 0 0 20 20 0 0 20 20 0 0 20 20 0 0 40 -40 0 0 40 20 0 0 20 40 0 0 -20 40 0 0 -20 20 0 0 -40 20 0 0 -80 -20 0 0 -40 -20 0 0 -20 -40 0 0 -20 -40 0 0 -60 40 0 0 -20 40 0 0 -20 20 0 0 -20 39 0 0 -20 20 0 0 -20 40 0 0 -20 20 0 0 -20 40 0 0 -20 40 0 0 -20 20 0 0 -20 20 0 0 -20 40 0 0 -20 40 0 0 -20 40 0 0 -20 20 0 0 -20 20 0 0 60 -20 0 0 60zm-719 -779l-60 0 0 19 -40 0 0 20 -40 0 0 20 -60 0 0 20 -60 0 0 20 -40 0 0 20 -20 0 0 20 -20 0 0 80 20 0 0 40 20 0 0 20 100 0 0 -20 40 0 0 -20 20 0 0 -20 40 0 0 -20 40 0 0 -20 20 0 0 -20 40 0 0 -20 20 0 0 -20 40 0 0 -20 40 0 0 60 -20 0 0 20 -40 0 0 20 -20 0 0 20 -20 0 0 20 -20 0 0 20 -20 0 0 20 -20 0 0 20 -20 0 0 20 -20 0 0 20 -40 0 0 20 -20 0 0 120 20 0 0 20 40 0 0 20 80 0 0 -20 20 0 0 -20 20 0 0 -40 20 0 0 -20 20 0 0 -20 20 0 0 -20 20 0 0 -40 20 0 0 -20 20 0 0 -20 20 0 0 -40 20 0 0 -20 20 0 0 -20 40 0 0 40 -20 0 0 60 -20 0 0 20 -20 0 0 40 -20 0 0 40 -20 0 0 40 -20 0 0 60 -20 0 0 80 20 0 0 20 20 0 0 20 100 0 0 -20 20 0 0 -20 20 0 0 -60 20 0 0 -60 20 0 0 -60 20 0 0 -80 20 0 0 -40 199 0 0 100 -20 0 0 20 -20 0 0 40 -20 0 0 20 -20 0 0 20 -20 0 0 20 -20 0 0 20 -20 0 0 20 -20 0 0 20 -20 0 0 20 -19 0 0 20 -20 0 0 20 -20 0 0 20 -20 0 0 20 -20 0 0 20 -120 0 0 20 -20 0 0 20 -20 0 0 40 20 0 0 20 40 0 0 40 -20 0 0 20 -80 0 0 -20 -20 0 0 -20 -20 0 0 -40 -20 0 0 -40 -20 0 0 -20 -20 0 0 -20 -120 0 0 20 -20 0 0 20 -20 0 0 40 -20 0 0 40 20 0 0 20 20 0 0 -20 20 0 0 -20 40 0 0 20 20 0 0 20 20 0 0 20 20 0 0 20 20 0 0 20 -60 0 0 -20 -60 0 0 20 -40 0 0 20 -20 0 0 20 -40 0 0 -20 -20 0 0 -40 -20 0 0 -60 -20 0 0 -40 -20 0 0 -40 -20 0 0 -60 -20 0 0 -80 -20 0 0 -120 -20 0 0 -380 20 0 0 -99 140 0 0 -20 120 0 0 -20 80 0 0 -20 60 0 0 40 -20 0 0 20zm0 -180l-300 0 0 -80 20 0 0 -40 40 0 0 20 120 0 0 20 120 0 0 20 20 0 0 40 -20 0 0 20zm1499 -80l20 0 0 -20 100 0 0 -20 20 0 0 -60 100 0 0 80 140 0 0 -40 20 0 0 -240 20 0 0 20 20 0 0 40 20 0 0 20 20 0 0 20 20 0 0 40 20 0 0 20 20 0 0 40 20 0 0 40 20 0 0 40 20 0 0 60 20 0 0 20 20 0 0 60 20 0 0 60 20 0 0 80 20 0 0 139 20 0 0 300 -20 0 0 120 -20 0 0 80 -20 0 0 80 -20 0 0 60 -20 0 0 40 -20 0 0 40 -20 0 0 40 -20 0 0 40 -20 0 0 40 -20 0 0 20 -20 0 0 40 -20 0 0 20 -20 0 0 40 -20 0 0 20 -20 0 0 20 -20 0 0 20 -20 0 0 20 -20 0 0 20 -20 0 0 20 -20 0 0 20 -20 0 0 20 -20 0 0 20 -20 0 0 20 -20 0 0 20 -40 0 0 20 -20 0 0 20 -20 0 0 20 -40 0 0 20 -20 0 0 20 -40 0 0 20 -40 0 0 20 -40 0 0 20 -40 0 0 20 -40 0 0 20 -60 0 0 20 -80 0 0 20 -80 0 0 20 -100 0 0 20 -140 0 0 -680 20 0 0 20 20 0 0 40 20 0 0 20 20 0 0 20 20 0 0 20 20 0 0 20 20 0 0 20 20 0 0 20 20 0 0 20 40 0 0 20 20 0 0 40 -20 0 0 60 -20 0 0 20 20 0 0 60 40 0 0 20 40 0 0 20 160 0 0 -20 40 0 0 -20 20 0 0 -20 20 0 0 -100 -20 0 0 -60 20 0 0 -20 40 0 0 -20 20 0 0 -20 20 0 0 -20 20 0 0 -20 20 0 0 -20 20 0 0 -20 20 0 0 -20 20 0 0 -40 20 0 0 -40 20 0 0 -80 20 0 0 -160 -20 0 0 -40 -20 0 0 -20 -20 0 0 -20 -20 0 0 -20 -20 0 0 -20 -60 0 0 -60 -20 0 0 -40 -20 0 0 -20 -20 0 0 -20 -20 0 0 -20 -40 0 0 -40 -20 0 0 -20 -20 0 0 -280 80 0 0 100 40 0 0 20 80 0 0 -20 40 0 0 -80 100 0 0 80 40 0 0 20 80 0 0 -20 20 0 0 -20 20 0 0 -279 -20 0 0 -20 -140 0 0 80 -100 0 0 -80 -80 0 0 -20 -40 0 0 -20 -20 0 0 -40zm-1679 -200l20 0 0 -40 20 0 0 -20 20 0 0 -20 20 0 0 -20 20 0 0 -20 20 0 0 20 20 0 0 20 20 0 0 40 20 0 0 40 20 0 0 20 20 0 0 20 20 0 0 20 20 0 0 20 -20 0 0 20 -60 0 0 -20 -60 0 0 -20 -40 0 0 -20 -60 0 0 -20 -20 0 0 -20zm1459 -280l-20 0 0 40 -20 0 0 1019 -20 0 0 20 -20 0 0 20 -20 0 0 20 -20 0 0 20 -20 0 0 20 -20 0 0 20 -20 0 0 20 -20 0 0 80 -60 0 0 20 -20 0 0 20 -20 0 0 20 -20 0 0 20 -20 0 0 -1519 20 0 0 -60 20 0 0 -60 20 0 0 20 40 0 0 20 20 0 0 20 20 0 0 20 20 0 0 20 40 0 0 20 20 0 0 -100 40 0 0 20 80 0 0 20 40 0 0 20 60 0 0 20 60 0 0 20 40 0 0 20 40 0 0 20 40 0 0 20 20 0 0 20 40 0 0 20 40 0 0 20 20 0 0 20 20 0 0 20 20 0 0 20 40 0 0 20 20 0 0 20 20 0 0 20 20 0 0 20 20 0 0 20 -80 0 0 20 -20 0 0 60 -20 0 0 20 -60 0 0 -20 -20 0 0 -60 -20 0 0 -20 -120 0 0 20 -20 0 0 100 -80 0 0 -200 -20 0 0 -40 -20 0 0 -20 -80 0 0 20zm-840 -140l-20 0 0 20 -40 0 0 20 -19 0 0 40 19 0 0 20 -19 0 0 20 -40 0 0 20 -60 0 0 20 -40 0 0 20 -20 0 0 60 140 0 0 40 -220 0 0 20 20 0 0 20 20 0 0 20 40 0 0 20 120 0 0 20 -20 0 0 20 20 0 0 20 59 0 0 -20 20 0 0 -20 40 0 0 -20 200 0 0 20 40 0 0 20 20 0 0 20 20 0 0 60 -20 0 0 40 -20 0 0 40 -20 0 0 20 -20 0 0 40 -20 0 0 40 -20 0 0 20 -20 0 0 20 -20 0 0 40 -20 0 0 20 -20 0 0 20 -40 0 0 20 -20 0 0 -20 -40 0 0 -20 -20 0 0 -80 20 0 0 -40 20 0 0 -100 -20 0 0 -20 -20 0 0 -20 -139 0 0 -20 -80 0 0 -20 -40 0 0 -20 -20 0 0 -20 -20 0 0 -20 -20 0 0 -20 -20 0 0 -20 -20 0 0 -40 -20 0 0 -60 -20 0 0 -40 20 0 0 -20 20 0 0 -20 20 0 0 -20 20 0 0 -20 40 0 0 -20 20 0 0 -20 20 0 0 -20 40 0 0 -20 20 0 0 -20 40 0 0 -20 20 0 0 -20 40 0 0 -20 59 0 0 -20 40 0 0 -20 80 0 0 -20 40 0 0 -20 80 0 0 -20 40 0 0 100 20 0 0 -20 40 0 0 -20 20 0 0 -20 20 0 0 -20 20 0 0 -20 60 0 0 40 20 0 0 80 20 0 0 200 -20 0 0 20 -80 0 0 -20 -40 0 0 -20 -60 0 0 -20 -20 0 0 -40 -80 0 0 -20 -20 0 0 -60 -20 0 0 -20 -20 0 0 -20 -20 0 0 -20 -60 0 0 20zm220 -540l20 0 0 -40 20 0 0 -20 20 0 0 -20 20 0 0 -20 20 0 0 -20 40 0 0 -20 60 0 0 -20 100 0 0 20 60 0 0 20 40 0 0 20 20 0 0 20 20 0 0 20 20 0 0 20 20 0 0 60 20 0 0 160 -20 0 0 40 -20 0 0 40 -20 0 0 20 -40 0 0 20 -20 0 0 20 -40 0 0 20 -180 0 0 -20 -40 0 0 -20 -40 0 0 -20 -20 0 0 -20 -20 0 0 -40 -20 0 0 -40 -20 0 0 -180zm-120 40l-40 0 0 20 -60 0 0 20 -40 0 0 20 20 0 0 20 80 0 0 20 40 0 0 20 40 0 0 40 -20 0 0 40 -20 0 0 20 -20 0 0 20 -20 0 0 40 -40 0 0 40 20 0 0 -20 100 0 0 -20 100 0 0 40 -60 0 0 20 -80 0 0 20 -80 0 0 20 -60 0 0 20 -39 0 0 20 -40 0 0 20 -40 0 0 20 -40 0 0 20 -40 0 0 20 -20 0 0 20 -40 0 0 20 -20 0 0 20 -20 0 0 20 -40 0 0 20 -20 0 0 20 -20 0 0 20 -20 0 0 20 -20 0 0 20 -40 0 0 20 -20 0 0 40 -20 0 0 20 -20 0 0 20 -20 0 0 20 -20 0 0 20 -20 0 0 20 -20 0 0 40 -20 0 0 20 -20 0 0 20 -20 0 0 40 -20 0 0 40 -20 0 0 40 -20 0 0 40 -20 0 0 20 -20 0 0 60 -20 0 0 60 -20 0 0 60 -20 0 0 80 -20 0 0 79 -20 0 0 480 20 0 0 80 20 0 0 60 20 0 0 60 20 0 0 60 20 0 0 40 20 0 0 40 20 0 0 40 20 0 0 40 20 0 0 40 20 0 0 40 20 0 0 20 20 0 0 20 20 0 0 40 20 0 0 20 20 0 0 20 20 0 0 20 20 0 0 20 20 0 0 40 20 0 0 20 20 0 0 20 20 0 0 20 20 0 0 20 40 0 0 20 20 0 0 20 20 0 0 20 20 0 0 20 20 0 0 20 40 0 0 20 20 0 0 20 40 0 0 20 40 0 0 20 20 0 0 20 60 0 0 20 40 0 0 20 59 0 0 20 40 0 0 20 60 0 0 20 100 0 0 20 100 0 0 20 380 0 0 -20 120 0 0 -20 80 0 0 -20 40 0 0 -20 60 0 0 -20 40 0 0 -20 60 0 0 -20 40 0 0 -20 20 0 0 -20 40 0 0 -20 40 0 0 -20 20 0 0 -20 40 0 0 -20 20 0 0 -20 40 0 0 -20 20 0 0 -20 20 0 0 -20 20 0 0 -20 20 0 0 -20 20 0 0 -20 20 0 0 -20 20 0 0 -20 20 0 0 -20 20 0 0 -20 20 0 0 -20 20 0 0 -20 20 0 0 -40 20 0 0 -20 20 0 0 -20 20 0 0 -40 20 0 0 -40 20 0 0 -20 20 0 0 -40 20 0 0 -40 20 0 0 -40 20 0 0 -60 20 0 0 -60 20 0 0 -60 20 0 0 -60 20 0 0 -120 20 0 0 -400 -20 0 0 -99 -20 0 0 -60 -20 0 0 -60 -20 0 0 -60 -20 0 0 -60 -20 0 0 -40 -20 0 0 -20 -20 0 0 -40 -20 0 0 -40 -20 0 0 -40 -20 0 0 -40 -20 0 0 -20 -20 0 0 -20 -20 0 0 -40 -20 0 0 -20 -20 0 0 -20 -20 0 0 -20 -20 0 0 -20 -20 0 0 -20 -20 0 0 -20 -20 0 0 -20 -20 0 0 -20 -20 0 0 -20 -20 0 0 -20 -20 0 0 -20 -20 0 0 -20 -40 0 0 -20 -20 0 0 -20 -40 0 0 -20 -20 0 0 -20 -20 0 0 -20 -40 0 0 -20 -40 0 0 -20 -40 0 0 -20 -40 0 0 -20 -40 0 0 -20 -60 0 0 -20 -80 0 0 -20 -80 0 0 -20 -60 0 0 -40 80 0 0 20 100 0 0 20 40 0 0 -20 -20 0 0 -20 -20 0 0 -20 -20 0 0 -20 -20 0 0 -40 -20 0 0 -20 -20 0 0 -60 40 0 0 -20 40 0 0 -20 60 0 0 -20 40 0 0 -20 -60 0 0 -20 -40 0 0 -20 -40 0 0 -20 -40 0 0 -20 120 0 0 20 80 0 0 20 40 0 0 20 60 0 0 20 40 0 0 20 60 0 0 20 40 0 0 20 40 0 0 20 40 0 0 20 20 0 0 20 40 0 0 20 40 0 0 20 20 0 0 20 20 0 0 20 40 0 0 20 40 0 0 20 20 0 0 20 20 0 0 20 20 0 0 20 20 0 0 20 40 0 0 20 20 0 0 20 20 0 0 20 20 0 0 20 20 0 0 20 20 0 0 20 20 0 0 20 20 0 0 40 20 0 0 20 20 0 0 20 20 0 0 40 20 0 0 20 20 0 0 20 20 0 0 40 19 0 0 20 20 0 0 40 20 0 0 20 20 0 0 40 20 0 0 40 20 0 0 40 20 0 0 60 20 0 0 40 20 0 0 40 20 0 0 60 20 0 0 60 20 0 0 80 20 0 0 100 20 0 0 99 20 0 0 460 -20 0 0 100 -20 0 0 100 -20 0 0 80 -20 0 0 60 -20 0 0 60 -20 0 0 40 -20 0 0 60 -20 0 0 40 -20 0 0 40 -20 0 0 40 -20 0 0 20 -20 0 0 40 -20 0 0 40 -20 0 0 20 -19 0 0 40 -20 0 0 20 -20 0 0 20 -20 0 0 40 -20 0 0 20 -20 0 0 20 -20 0 0 20 -20 0 0 20 -20 0 0 40 -20 0 0 20 -20 0 0 20 -20 0 0 20 -40 0 0 40 -20 0 0 20 -40 0 0 20 -20 0 0 20 -20 0 0 20 -20 0 0 20 -40 0 0 20 -20 0 0 20 -40 0 0 20 -20 0 0 20 -40 0 0 20 -40 0 0 20 -20 0 0 20 -40 0 0 20 -40 0 0 20 -60 0 0 20 -40 0 0 20 -40 0 0 20 -60 0 0 20 -60 0 0 20 -80 0 0 20 -80 0 0 20 -120 0 0 19 -480 0 0 -19 -120 0 0 -20 -60 0 0 -20 -80 0 0 -20 -59 0 0 -20 -60 0 0 -20 -60 0 0 -20 -40 0 0 -20 -40 0 0 -20 -40 0 0 -20 -40 0 0 -20 -40 0 0 -20 -20 0 0 -20 -40 0 0 -20 -40 0 0 -20 -20 0 0 -20 -40 0 0 -20 -20 0 0 -20 -20 0 0 -20 -20 0 0 -20 -40 0 0 -20 -20 0 0 -20 -20 0 0 -20 -20 0 0 -20 -20 0 0 -20 -20 0 0 -20 -20 0 0 -20 -20 0 0 -20 -20 0 0 -20 -20 0 0 -20 -20 0 0 -20 -20 0 0 -40 -20 0 0 -20 -20 0 0 -40 -20 0 0 -20 -20 0 0 -20 -20 0 0 -40 -20 0 0 -20 -20 0 0 -40 -20 0 0 -20 -20 0 0 -40 -20 0 0 -40 -20 0 0 -40 -20 0 0 -60 -20 0 0 -40 -20 0 0 -40 -20 0 0 -80 -20 0 0 -60 -20 0 0 -100 -20 0 0 -120 -20 0 0 -200 -20 0 0 -120 20 0 0 -180 20 0 0 -119 20 0 0 -100 20 0 0 -60 20 0 0 -60 20 0 0 -40 20 0 0 -60 20 0 0 -40 20 0 0 -60 20 0 0 -40 20 0 0 -20 20 0 0 -40 20 0 0 -20 20 0 0 -40 20 0 0 -40 20 0 0 -20 20 0 0 -20 20 0 0 -40 20 0 0 -20 20 0 0 -20 20 0 0 -40 20 0 0 -20 20 0 0 -20 20 0 0 -20 20 0 0 -20 20 0 0 -20 20 0 0 -20 20 0 0 -20 20 0 0 -20 20 0 0 -20 40 0 0 -20 20 0 0 -20 20 0 0 -20 20 0 0 -20 40 0 0 -20 20 0 0 -20 20 0 0 -20 40 0 0 -20 40 0 0 -20 20 0 0 -20 40 0 0 -20 40 0 0 -20 40 0 0 -20 40 0 0 -20 40 0 0 -20 60 0 0 -20 40 0 0 -20 59 0 0 -20 80 0 0 -20 120 0 0 20 -40 0 0 20zm340 -380l-20 0 0 60 -20 0 0 60 -40 0 0 -20 -40 0 0 -20 -20 0 0 -40 -40 0 0 -20 -20 0 0 -20 -20 0 0 -20 -20 0 0 40 20 0 0 120 20 0 0 60 -120 0 0 -20 -100 0 0 20 20 0 0 20 -20 0 0 20 -80 0 0 20 -39 0 0 20 -60 0 0 20 -60 0 0 20 -60 0 0 20 -40 0 0 20 -40 0 0 20 -40 0 0 20 -40 0 0 20 -40 0 0 20 -20 0 0 20 -40 0 0 20 -20 0 0 20 -40 0 0 20 -20 0 0 20 -40 0 0 20 -20 0 0 20 -20 0 0 20 -20 0 0 20 -40 0 0 20 -20 0 0 20 -20 0 0 20 -20 0 0 20 -20 0 0 20 -20 0 0 20 -20 0 0 20 -20 0 0 20 -20 0 0 20 -20 0 0 20 -20 0 0 20 -20 0 0 20 -20 0 0 40 -20 0 0 20 -20 0 0 40 -20 0 0 20 -20 0 0 20 -20 0 0 40 -20 0 0 20 -20 0 0 40 -20 0 0 40 -20 0 0 40 -20 0 0 40 -20 0 0 40 -20 0 0 40 -20 0 0 60 -20 0 0 40 -20 0 0 60 -20 0 0 60 -20 0 0 80 -20 0 0 80 -20 0 0 119 -20 0 0 180 -20 0 0 180 20 0 0 160 20 0 0 100 20 0 0 80 20 0 0 80 20 0 0 80 20 0 0 40 20 0 0 40 20 0 0 60 20 0 0 40 20 0 0 40 20 0 0 40 20 0 0 40 20 0 0 40 20 0 0 20 20 0 0 40 20 0 0 40 20 0 0 20 20 0 0 20 20 0 0 40 20 0 0 20 20 0 0 20 20 0 0 20 20 0 0 40 20 0 0 20 20 0 0 20 20 0 0 20 20 0 0 20 20 0 0 20 20 0 0 20 20 0 0 20 20 0 0 20 20 0 0 20 20 0 0 20 40 0 0 20 20 0 0 20 20 0 0 20 40 0 0 20 20 0 0 20 20 0 0 20 40 0 0 20 20 0 0 20 40 0 0 20 40 0 0 20 20 0 0 20 40 0 0 20 40 0 0 20 40 0 0 20 60 0 0 20 40 0 0 19 40 0 0 20 60 0 0 20 79 0 0 20 80 0 0 20 80 0 0 20 220 0 0 20 300 0 0 -20 200 0 0 -20 80 0 0 -20 80 0 0 -20 60 0 0 -20 60 0 0 -20 60 0 0 -19 20 0 0 -20 40 0 0 -20 60 0 0 -20 40 0 0 -20 20 0 0 -20 40 0 0 -20 40 0 0 -20 20 0 0 -20 40 0 0 -20 40 0 0 -20 20 0 0 -20 20 0 0 -20 40 0 0 -20 20 0 0 -20 20 0 0 -20 20 0 0 -20 20 0 0 -20 20 0 0 -20 20 0 0 -20 40 0 0 -20 20 0 0 -20 20 0 0 -40 20 0 0 -20 20 0 0 -20 20 0 0 -20 20 0 0 -20 20 0 0 -20 19 0 0 -20 20 0 0 -40 20 0 0 -20 20 0 0 -20 20 0 0 -40 20 0 0 -40 20 0 0 -20 20 0 0 -40 20 0 0 -40 20 0 0 -20 20 0 0 -40 20 0 0 -60 20 0 0 -40 20 0 0 -60 20 0 0 -40 20 0 0 -60 20 0 0 -60 20 0 0 -80 20 0 0 -100 20 0 0 -100 20 0 0 -440 -20 0 0 -139 -20 0 0 -100 -20 0 0 -80 -20 0 0 -80 -20 0 0 -60 -20 0 0 -40 -20 0 0 -40 -20 0 0 -40 -20 0 0 -40 -20 0 0 -40 -20 0 0 -40 -20 0 0 -20 -20 0 0 -40 -20 0 0 -40 -20 0 0 -20 -20 0 0 -40 -20 0 0 -20 -20 0 0 -20 -20 0 0 -20 -20 0 0 -40 -19 0 0 -20 -20 0 0 -20 -20 0 0 -20 -20 0 0 -20 -20 0 0 -40 -20 0 0 -20 -20 0 0 -20 -40 0 0 -40 -20 0 0 -20 -20 0 0 -20 -40 0 0 -20 -20 0 0 -20 -20 0 0 -20 -20 0 0 -20 -40 0 0 -20 -20 0 0 -20 -40 0 0 -20 -20 0 0 -20 -20 0 0 -20 -40 0 0 -20 -40 0 0 -20 -40 0 0 -20 -20 0 0 -20 -40 0 0 -20 -40 0 0 -20 -60 0 0 -20 -40 0 0 -20 -60 0 0 -20 -60 0 0 -20 -60 0 0 -20 -80 0 0 -40 20 0 0 -20 -120 0 0 20 -100 0 0 -100 20 0 0 -100 -20 0 0 20 -40 0 0 20 -20 0 0 20 -20 0 0 20 -20 0 0 20 -40 0 0 20 -20 0 0 -40 -20 0 0 -40 -20 0 0 -60 -20 0 0 -40 -40 0 0 60z"/>
   <polygon class="fil0" points="3505,2569 3485,2569 3485,2629 3544,2629 3544,2649 3584,2649 3584,2669 3564,2669 3564,2689 3505,2689 3505,2709 3445,2709 3445,2749 3425,2749 3425,2809 3445,2809 3445,2829 3525,2829 3525,2849 3564,2849 3564,2869 3664,2869 3664,2789 3604,2789 3604,2769 3544,2769 3544,2749 3584,2749 3584,2729 3644,2729 3644,2709 3684,2709 3684,2689 3704,2689 3704,2669 3724,2669 3724,2609 3704,2609 3704,2589 3644,2589 3644,2569 3564,2569 3564,2549 3505,2549 "/>
   <polygon class="fil0" points="2605,3609 2585,3609 2585,3629 2565,3629 2565,3649 2585,3649 2585,3709 2605,3709 2605,3729 2565,3729 2565,3709 2525,3709 2525,3689 2505,3689 2505,3669 2465,3669 2465,3649 2425,3649 2425,3669 2385,3669 2385,3749 2405,3749 2405,3809 2425,3809 2425,3869 2445,3869 2445,3889 2505,3889 2505,3869 2525,3869 2525,3849 2505,3849 2505,3769 2525,3769 2525,3789 2565,3789 2565,3809 2585,3809 2585,3829 2625,3829 2625,3849 2665,3849 2665,3829 2705,3829 2705,3729 2685,3729 2685,3689 2665,3689 2665,3629 2645,3629 2645,3589 2605,3589 "/>
   <polygon class="fil0" points="2925,3429 2905,3429 2905,3449 2865,3449 2865,3469 2845,3469 2845,3489 2805,3489 2805,3509 2765,3509 2765,3529 2745,3529 2745,3609 2765,3609 2765,3629 2785,3629 2785,3649 2805,3649 2805,3689 2825,3689 2825,3729 2845,3729 2845,3749 2885,3749 2885,3729 2925,3729 2925,3709 2945,3709 2945,3689 2985,3689 2985,3669 3005,3669 3005,3649 3045,3649 3045,3629 3065,3629 3065,3589 3005,3589 3005,3609 2965,3609 2965,3629 2925,3629 2925,3649 2885,3649 2885,3609 2925,3609 2925,3589 2965,3589 2965,3569 2985,3569 2985,3549 3005,3549 3005,3509 2985,3509 2985,3489 2965,3489 2965,3509 2945,3509 2945,3529 2925,3529 2925,3549 2885,3549 2885,3569 2845,3569 2845,3529 2885,3529 2885,3509 2905,3509 2905,3489 2945,3489 2945,3469 2965,3469 2965,3409 2925,3409 "/>
   <polygon class="fil0" points="2065,3709 2025,3709 2025,3929 2045,3929 2045,3949 2125,3949 2125,3929 2305,3929 2305,3889 2285,3889 2285,3869 2145,3869 2145,3889 2125,3889 2125,3849 2165,3849 2165,3829 2265,3829 2265,3789 2125,3789 2125,3749 2265,3749 2265,3729 2285,3729 2285,3689 2065,3689 "/>
   <polygon class="fil0" points="3385,2909 3365,2909 3365,2929 3345,2929 3345,2969 3325,2969 3325,3009 3305,3009 3305,3029 3285,3029 3285,3069 3265,3069 3265,3129 3285,3129 3285,3149 3325,3149 3325,3169 3345,3169 3345,3189 3385,3189 3385,3209 3425,3209 3425,3229 3465,3229 3465,3209 3485,3209 3485,3169 3505,3169 3505,3129 3525,3129 3525,3109 3544,3109 3544,3069 3564,3069 3564,3029 3584,3029 3584,2989 3525,2989 3525,3029 3505,3029 3505,3069 3485,3069 3485,3089 3465,3089 3465,3109 3425,3109 3425,3089 3445,3089 3445,3049 3465,3049 3465,3009 3485,3009 3485,2969 3465,2969 3465,2949 3445,2949 3445,2969 3425,2969 3425,3009 3405,3009 3405,3049 3385,3049 3385,3069 3345,3069 3345,3029 3365,3029 3365,3009 3385,3009 3385,2969 3405,2969 3405,2949 3425,2949 3425,2909 3405,2909 3405,2889 3385,2889 "/>
   <polygon class="fil0" points="566,2389 446,2389 446,2409 406,2409 406,2469 426,2469 426,2489 506,2489 506,2509 526,2509 526,2569 506,2569 506,2589 446,2589 446,2689 506,2689 506,2669 626,2669 626,2649 686,2649 686,2589 666,2589 666,2569 586,2569 586,2529 566,2529 566,2469 626,2469 626,2449 646,2449 646,2369 566,2369 "/>
   <path class="fil0" d="M586 2849l20 0 0 -20 80 0 0 20 20 0 0 20 20 0 0 60 -20 0 0 20 -20 0 0 20 -60 0 0 -20 -20 0 0 -20 -20 0 0 -80zm0 -80l-20 0 0 20 -20 0 0 20 -20 0 0 140 20 0 0 40 20 0 0 20 20 0 0 20 40 0 0 20 100 0 0 -20 20 0 0 -20 20 0 0 -20 20 0 0 -140 -20 0 0 -40 -20 0 0 -20 -20 0 0 -20 -40 0 0 -20 -100 0 0 20z"/>
   <polygon class="fil0" points="1725,3669 1665,3669 1665,3689 1625,3689 1625,3729 1605,3729 1605,3829 1625,3829 1625,3849 1645,3849 1645,3869 1665,3869 1665,3889 1705,3889 1705,3909 1845,3909 1845,3929 1885,3929 1885,3909 1905,3909 1905,3809 1885,3809 1885,3789 1785,3789 1785,3829 1805,3829 1805,3849 1725,3849 1725,3829 1705,3829 1705,3809 1685,3809 1685,3749 1705,3749 1705,3729 1725,3729 1725,3709 1785,3709 1785,3729 1825,3729 1825,3749 1845,3749 1845,3769 1905,3769 1905,3729 1885,3729 1885,3709 1865,3709 1865,3689 1825,3689 1825,3669 1785,3669 1785,3649 1725,3649 "/>
   <path class="fil0" d="M606 1850l0 -40 20 0 0 -40 20 0 0 -20 20 0 0 60 -20 0 0 20 -20 0 0 20 -20 0zm0 0l0 60 60 0 0 -20 20 0 0 -20 20 0 0 -60 20 0 0 -120 -20 0 0 -20 -80 0 0 20 -20 0 0 40 -20 0 0 40 -20 0 0 20 -40 0 0 -60 20 0 0 -20 20 0 0 -20 20 0 0 -20 20 0 0 -40 -20 0 0 -20 -20 0 0 20 -20 0 0 20 -40 0 0 40 -20 0 0 40 -20 0 0 140 20 0 0 20 80 0 0 -20 20 0 0 -20 20 0z"/>
   <polygon class="fil0" points="3564,2209 3544,2209 3544,2229 3525,2229 3525,2429 3544,2429 3544,2449 3624,2449 3624,2429 3644,2429 3644,2369 3664,2369 3664,2289 3704,2289 3704,2369 3684,2369 3684,2389 3664,2389 3664,2469 3724,2469 3724,2449 3744,2449 3744,2409 3764,2409 3764,2229 3744,2229 3744,2209 3724,2209 3724,2189 3664,2189 3664,2209 3644,2209 3644,2229 3624,2229 3624,2289 3604,2289 3604,2349 3584,2349 3584,2369 3564,2369 3564,2289 3584,2289 3584,2249 3604,2249 3604,2209 3584,2209 3584,2189 3564,2189 "/>
   <polygon class="fil0" points="3564,1610 3525,1610 3525,1810 3505,1810 3505,1790 3485,1790 3485,1650 3445,1650 3445,1690 3425,1690 3425,1790 3445,1790 3445,1830 3465,1830 3465,1870 3485,1870 3485,1890 3564,1890 3564,1870 3584,1870 3584,1690 3624,1690 3624,1790 3604,1790 3604,1810 3624,1810 3624,1850 3644,1850 3644,1870 3664,1870 3664,1850 3684,1850 3684,1710 3664,1710 3664,1670 3644,1670 3644,1630 3624,1630 3624,1610 3604,1610 3604,1590 3564,1590 "/>
   <path class="fil0" d="M3005 970l60 0 0 20 20 0 0 40 -20 0 0 20 -20 0 0 -20 -40 0 0 -60zm-60 -40l-20 0 0 100 -20 0 0 -20 -20 0 0 60 20 0 0 20 20 0 0 40 40 0 0 20 120 0 0 -20 40 0 0 -40 20 0 0 -120 -20 0 0 -20 -20 0 0 -20 -40 0 0 -20 -120 0 0 20z"/>
   <polygon class="fil0" points="466,2009 446,2009 446,2029 426,2029 426,2069 406,2069 406,2109 386,2109 386,2189 406,2189 406,2229 426,2229 426,2269 446,2269 446,2289 486,2289 486,2249 506,2249 506,2229 486,2229 486,2189 466,2189 466,2089 486,2089 486,2069 546,2069 546,2089 586,2089 586,2189 566,2189 566,2229 546,2229 546,2289 586,2289 586,2269 606,2269 606,2249 626,2249 626,2209 646,2209 646,2069 626,2069 626,2029 606,2029 606,2009 586,2009 586,1989 466,1989 "/>
   <path class="fil0" d="M1026 3429l60 0 0 40 -40 0 0 -20 -20 0 0 -20zm40 -80l-40 0 0 20 -40 0 0 20 -60 0 0 20 -60 0 0 40 40 0 0 20 40 0 0 20 80 0 0 20 20 0 0 80 20 0 0 20 20 0 0 20 40 0 0 -100 20 0 0 -40 20 0 0 -140 -20 0 0 -20 -80 0 0 20z"/>
   <path class="fil0" d="M2845 850l-40 0 0 -20 40 0 0 20zm-40 -20l-40 0 0 -20 40 0 0 20zm40 20l80 0 0 -40 -40 0 0 -20 -20 0 0 -20 -40 0 0 -20 -100 0 0 20 -20 0 0 20 -20 0 0 20 -40 0 0 20 20 0 0 20 60 0 0 20 60 0 0 20 20 0 0 40 -40 0 0 20 -20 0 0 -20 -40 0 0 -40 -20 0 0 -20 -40 0 0 -20 -20 0 0 60 20 0 0 20 20 0 0 20 20 0 0 20 20 0 0 20 60 0 0 20 60 0 0 -20 20 0 0 -20 20 0 0 -100 -20 0 0 -20z"/>
   <path class="fil0" d="M1346 830l0 20 -40 0 0 -20 40 0zm0 0l0 -20 20 0 0 -20 40 0 0 -20 20 0 0 -20 -20 0 0 -20 -20 0 0 20 -60 0 0 20 -40 0 0 20 -20 0 0 20 -20 0 0 20 -20 0 0 20 20 0 0 80 80 0 0 -40 40 0 0 -20 40 0 0 20 20 0 0 40 -20 0 0 20 -120 0 0 60 100 0 0 -20 40 0 0 -20 40 0 0 -20 20 0 0 -40 20 0 0 -60 -20 0 0 -20 -20 0 0 -20 -80 0 0 20 -40 0z"/>
   <polygon class="fil0" points="3165,3229 3145,3229 3145,3249 3165,3249 3165,3289 3185,3289 3185,3329 3205,3329 3205,3389 3185,3389 3185,3369 3145,3369 3145,3349 3125,3349 3125,3329 3025,3329 3025,3389 3045,3389 3045,3409 3085,3409 3085,3429 3145,3429 3145,3449 3185,3449 3185,3469 3265,3469 3265,3429 3305,3429 3305,3369 3285,3369 3285,3329 3265,3329 3265,3269 3245,3269 3245,3209 3225,3209 3225,3189 3165,3189 "/>
   <polygon class="fil0" points="846,3069 826,3069 826,3089 786,3089 786,3109 766,3109 766,3129 726,3129 726,3149 706,3149 706,3169 686,3169 686,3209 706,3209 706,3249 726,3249 726,3269 746,3269 746,3289 766,3289 766,3329 786,3329 786,3349 806,3349 806,3389 826,3389 826,3369 846,3369 846,3309 826,3309 826,3289 806,3289 806,3249 786,3249 786,3209 806,3209 806,3189 826,3189 826,3169 846,3169 846,3149 886,3149 886,3129 906,3129 906,3089 886,3089 886,3049 846,3049 "/>
   <polygon class="fil0" points="1086,930 1066,930 1066,950 1046,950 1046,1010 1026,1010 1026,1030 1006,1030 1006,1050 1026,1050 1026,1070 1046,1070 1046,1050 1066,1050 1066,1030 1106,1030 1106,1050 1126,1050 1126,1070 1146,1070 1146,1110 1166,1110 1166,1150 1186,1150 1186,1130 1206,1130 1206,1110 1226,1110 1226,1050 1206,1050 1206,1030 1186,1030 1186,990 1166,990 1166,970 1146,970 1146,950 1126,950 1126,910 1086,910 "/>
   <polygon class="fil0" points="3684,1989 3544,1989 3544,2009 3505,2009 3505,2089 3624,2089 3624,2069 3744,2069 3744,1989 3724,1989 3724,1970 3684,1970 "/>
   <polygon class="fil0" points="2045,470 2025,470 2025,510 1985,510 1985,570 2045,570 2045,530 2065,530 2065,510 2085,510 2085,550 2105,550 2105,570 2165,570 2165,510 2125,510 2125,470 2105,470 2105,450 2045,450 "/>
   <polygon class="fil0" points="2005,750 2025,750 2025,730 2045,730 2045,690 2105,690 2105,750 2125,750 2125,730 2145,730 2145,610 2105,610 2105,630 2085,630 2085,650 2045,650 2045,610 2005,610 "/>
   <polygon class="fil0" points="2165,610 2185,610 2185,630 2205,630 2205,710 2185,710 2185,730 2165,730 2165,750 2265,750 2265,730 2285,730 2285,710 2245,710 2245,690 2265,690 2265,630 2285,630 2285,610 2265,610 2265,590 2165,590 "/>
   <polygon class="fil0" points="1346,3629 1326,3629 1326,3649 1306,3649 1306,3689 1326,3689 1326,3729 1406,3729 1406,3709 1426,3709 1426,3629 1406,3629 1406,3609 1346,3609 "/>
   <polygon class="fil0" points="3285,1310 3265,1310 3265,1350 3285,1350 3285,1370 3325,1370 3325,1390 3345,1390 3345,1370 3385,1370 3385,1290 3365,1290 3365,1270 3285,1270 "/>
   <polygon class="fil0" points="766,1370 786,1370 786,1390 826,1390 826,1370 866,1370 866,1290 846,1290 846,1270 766,1270 "/>
   <polygon class="fil0" points="1905,610 1885,610 1885,650 1905,650 1905,710 1885,710 1885,750 1965,750 1965,710 1945,710 1945,650 1965,650 1965,610 1945,610 1945,590 1905,590 "/>
   <polygon class="fil0" points="2065,790 2045,790 2045,830 2105,830 2105,790 2085,790 2085,770 2065,770 "/>
  </g>
 </g>
</svg>
