<?xml version="1.0" encoding="UTF-8"?>
<!DOCTYPE svg PUBLIC "-//W3C//DTD SVG 1.1//EN" "http://www.w3.org/Graphics/SVG/1.1/DTD/svg11.dtd">
<!-- Creator: CorelDRAW X7 -->
<svg xmlns="http://www.w3.org/2000/svg" xml:space="preserve" width="16.9332mm" height="21.1666mm" version="1.1" style="shape-rendering:geometricPrecision; text-rendering:geometricPrecision; image-rendering:optimizeQuality; fill-rule:evenodd; clip-rule:evenodd"
viewBox="0 0 1693 2117"
 xmlns:xlink="http://www.w3.org/1999/xlink">
 <defs>
  <style type="text/css">
   <![CDATA[
    .str0 {stroke:#FEFEFE;stroke-width:33.86}
    .fil1 {fill:#FEFEFE}
    .fil0 {fill:#E5097F}
    .fnt0 {font-weight:bold;font-size:473.53px;font-family:'Arial'}
   ]]>
  </style>
 </defs>
 <g id="Layer_x0020_1">
  <metadata id="CorelCorpID_0Corel-Layer"/>
  <path class="fil0 str0" d="M1204 589l0 0c-228,-228 -598,-228 -827,0l0 0c-205,206 -228,593 -54,826l468 675 467 -675c175,-233 152,-620 -54,-826z"/>
  <g id="_81796776">
   <path class="fil1" d="M1021 945l101 0 0 243 -101 0 0 -243zm0 0z"/>
   <path class="fil1" d="M829 945l102 0 0 243 -102 0 0 -243zm0 0z"/>
   <path class="fil1" d="M637 945l102 0 0 243 -102 0 0 -243zm0 0z"/>
   <path class="fil1" d="M445 945l102 0 0 243 -102 0 0 -243zm0 0z"/>
   <path class="fil1" d="M1156 869l0 -25 -745 0 0 25c0,14 12,26 26,26l694 0c14,0 25,-12 25,-26l0 0zm0 0z"/>
   <path class="fil1" d="M1191 1239l-814 0c-14,0 -26,11 -26,25l0 68c0,14 12,25 26,25l814 0c14,0 25,-11 25,-25l0 -68c0,-14 -11,-25 -25,-25l0 0zm0 0z"/>
   <path class="fil1" d="M377 793l814 0c11,0 21,-7 24,-18 3,-11 -1,-23 -11,-29l-407 -250c-8,-5 -18,-5 -26,0l-408 250c-9,6 -14,18 -11,29 3,11 13,18 25,18l0 0zm390 -152l34 0c14,0 25,11 25,25 0,14 -11,26 -25,26l-34 0c-14,0 -26,-12 -26,-26 0,-14 12,-25 26,-25l0 0zm0 0z"/>
  </g>
  <ellipse class="fil0" cx="1207" cy="512" rx="444" ry="437"/>
  <ellipse class="fil1" cx="1207" cy="512" rx="391" ry="385"/>
  <text x="952" y="708"  class="fil0 fnt0">10</text>
 </g>
</svg>
